<svg width="52" height="52" viewBox="0 0 52 52" fill="none" xmlns="http://www.w3.org/2000/svg">
<rect x="1" y="1" width="50" height="50" rx="25" fill="#E7E2F3"/>
<g clip-path="url(#clip0_11_2818)">
<path d="M31 17H35C35.2652 17 35.5196 17.1054 35.7071 17.2929C35.8946 17.4804 36 17.7348 36 18V34C36 34.2652 35.8946 34.5196 35.7071 34.7071C35.5196 34.8946 35.2652 35 35 35H17C16.7348 35 16.4804 34.8946 16.2929 34.7071C16.1054 34.5196 16 34.2652 16 34V18C16 17.7348 16.1054 17.4804 16.2929 17.2929C16.4804 17.1054 16.7348 17 17 17H21V15H23V17H29V15H31V17ZM18 23V33H34V23H18ZM20 27H25V31H20V27Z" fill="#4A3780"/>
</g>
<rect x="1" y="1" width="50" height="50" rx="25" stroke="white" stroke-width="2"/>
<defs>
<clipPath id="clip0_11_2818">
<rect width="24" height="24" fill="white" transform="translate(14 14)"/>
</clipPath>
</defs>
</svg>
