<svg width="52" height="52" viewBox="0 0 52 52" fill="none" xmlns="http://www.w3.org/2000/svg">
<rect x="1" y="1" width="50" height="50" rx="25" fill="#DBECF6"/>
<g clip-path="url(#clip0_11_2817)">
<path d="M34 36H18C17.7348 36 17.4804 35.8946 17.2929 35.7071C17.1054 35.5196 17 35.2652 17 35V17C17 16.7348 17.1054 16.4804 17.2929 16.2929C17.4804 16.1054 17.7348 16 18 16H34C34.2652 16 34.5196 16.1054 34.7071 16.2929C34.8946 16.4804 35 16.7348 35 17V35C35 35.2652 34.8946 35.5196 34.7071 35.7071C34.5196 35.8946 34.2652 36 34 36ZM33 34V18H19V34H33ZM22 21H30V23H22V21ZM22 25H30V27H22V25ZM22 29H30V31H22V29Z" fill="#194A66"/>
</g>
<rect x="1" y="1" width="50" height="50" rx="25" stroke="white" stroke-width="2"/>
<defs>
<clipPath id="clip0_11_2817">
<rect width="24" height="24" fill="white" transform="translate(14 14)"/>
</clipPath>
</defs>
</svg>
